<svg xmlns="http://www.w3.org/2000/svg" version="1.1" viewBox="0 0 100 10"><rect width="0.6" height="10" x="0.0" y="0"/><rect width="0.3" height="10" x="0.8" y="0"/><rect width="0.8" height="10" x="1.7" y="0"/><rect width="0.3" height="10" x="3.1" y="0"/><rect width="0.3" height="10" x="3.7" y="0"/><rect width="1.1" height="10" x="4.2" y="0"/><rect width="0.3" height="10" x="6.2" y="0"/><rect width="0.3" height="10" x="7.3" y="0"/><rect width="0.6" height="10" x="7.9" y="0"/><rect width="0.8" height="10" x="9.3" y="0"/><rect width="0.3" height="10" x="11.0" y="0"/><rect width="0.6" height="10" x="11.5" y="0"/><rect width="0.6" height="10" x="12.4" y="0"/><rect width="0.3" height="10" x="14.1" y="0"/><rect width="0.3" height="10" x="14.6" y="0"/><rect width="0.6" height="10" x="15.5" y="0"/><rect width="1.1" height="10" x="16.3" y="0"/><rect width="0.6" height="10" x="17.7" y="0"/><rect width="0.3" height="10" x="18.6" y="0"/><rect width="0.6" height="10" x="19.1" y="0"/><rect width="0.8" height="10" x="20.3" y="0"/><rect width="0.3" height="10" x="21.7" y="0"/><rect width="1.1" height="10" x="22.2" y="0"/><rect width="0.8" height="10" x="23.6" y="0"/><rect width="0.8" height="10" x="24.8" y="0"/><rect width="0.3" height="10" x="25.9" y="0"/><rect width="0.6" height="10" x="26.7" y="0"/><rect width="0.3" height="10" x="27.8" y="0"/><rect width="0.8" height="10" x="28.4" y="0"/><rect width="1.1" height="10" x="29.5" y="0"/><rect width="0.6" height="10" x="30.9" y="0"/><rect width="0.8" height="10" x="32.3" y="0"/><rect width="0.3" height="10" x="33.5" y="0"/><rect width="0.6" height="10" x="34.0" y="0.0"/></svg>