<svg viewBox="0 0 478 97" xmlns="http://www.w3.org/2000/svg">
<path stroke="#000000" stroke-width="2" d="M1 97L1 0M9 97L9 0M29 97L29 0M33 97L33 0M49 97L49 0M61 97L61 0M73 97L73 0M81 97L81 0M93 97L93 0M97 97L97 0M101 97L101 0M117 97L117 0M149 97L149 0M153 97L153 0M157 97L157 0M181 97L181 0M185 97L185 0M189 97L189 0M193 97L193 0M197 97L197 0M213 97L213 0M245 97L245 0M249 97L249 0M253 97L253 0M277 97L277 0M281 97L281 0M285 97L285 0M309 97L309 0M313 97L313 0M317 97L317 0M341 97L341 0M345 97L345 0M349 97L349 0M353 97L353 0M357 97L357 0M373 97L373 0M393 97L393 0M409 97L409 0M413 97L413 0M417 97L417 0M441 97L441 0M445 97L445 0M449 97L449 0M457 97L457 0M477 97L477 0" />
<path stroke="#000000" stroke-width="6" d="M15 97L15 0M23 97L23 0M39 97L39 0M55 97L55 0M67 97L67 0M87 97L87 0M111 97L111 0M123 97L123 0M131 97L131 0M139 97L139 0M163 97L163 0M171 97L171 0M207 97L207 0M219 97L219 0M227 97L227 0M235 97L235 0M259 97L259 0M267 97L267 0M291 97L291 0M299 97L299 0M323 97L323 0M331 97L331 0M367 97L367 0M379 97L379 0M387 97L387 0M403 97L403 0M423 97L423 0M435 97L435 0M463 97L463 0M471 97L471 0" />
</svg>
